<?xml version="1.0" standalone="no"?>
<!DOCTYPE svg PUBLIC "-//W3C//DTD SVG 20010904//EN"
 "http://www.w3.org/TR/2001/REC-SVG-20010904/DTD/svg10.dtd">
<svg version="1.0" xmlns="http://www.w3.org/2000/svg"
 width="626.000000pt" height="626.000000pt" viewBox="0 0 626.000000 626.000000"
 preserveAspectRatio="xMidYMid meet">

<g transform="translate(0.000000,626.000000) scale(0.100000,-0.100000)"
fill="#000000" stroke="none">
<path d="M3120 5431 c0 -23 5 -41 10 -41 6 0 10 15 10 34 0 19 -4 38 -10 41
-6 4 -10 -10 -10 -34z"/>
<path d="M3120 5240 c0 -60 4 -100 10 -100 6 0 10 40 10 100 0 60 -4 100 -10
100 -6 0 -10 -40 -10 -100z"/>
<path d="M2060 5095 c0 -11 32 -67 36 -63 6 7 -19 68 -28 68 -4 0 -8 -2 -8 -5z"/>
<path d="M3120 4895 l0 -206 -106 -185 c-59 -102 -114 -189 -123 -193 -9 -5
-37 -12 -63 -16 l-47 -7 -10 38 c-6 22 -33 126 -60 233 -45 173 -61 225 -61
194 0 -5 25 -106 55 -224 30 -118 55 -221 55 -231 0 -11 -20 -22 -71 -38 -39
-12 -96 -32 -126 -45 l-54 -25 -61 130 c-34 72 -65 130 -69 130 -8 0 35 -98
85 -198 14 -28 26 -55 26 -59 0 -5 -21 -19 -47 -33 -26 -14 -81 -47 -121 -73
-41 -26 -75 -47 -76 -45 -83 113 -261 338 -268 338 -8 0 186 -262 235 -317 10
-12 18 -26 16 -31 -2 -6 -42 -43 -89 -84 -82 -72 -86 -74 -120 -65 -19 5 -74
7 -121 5 -73 -3 -97 -9 -155 -38 -126 -62 -212 -179 -235 -319 -20 -125 28
-268 121 -359 46 -45 48 -50 43 -89 -5 -40 -6 -41 -42 -36 -20 2 -118 14 -218
27 -101 12 -183 19 -183 14 0 -4 3 -8 8 -8 4 0 97 -11 207 -25 110 -14 203
-25 208 -25 4 0 7 -65 7 -144 l0 -143 -47 -6 c-27 -3 -90 -9 -141 -13 -51 -4
-95 -10 -98 -15 -3 -5 21 -6 53 -3 193 18 228 21 231 19 2 -2 8 -33 13 -71 5
-37 16 -95 24 -128 7 -34 11 -64 7 -68 -4 -3 -104 -34 -222 -68 -118 -34 -219
-66 -224 -71 -16 -14 -8 -12 226 56 122 36 224 65 228 65 3 0 14 -24 24 -54
l19 -54 -121 -209 -120 -208 246 -3 247 -2 57 -57 c32 -32 58 -62 58 -68 0 -5
-68 -76 -152 -156 -84 -81 -151 -149 -148 -152 3 -3 76 62 163 145 l157 150
47 -39 c27 -22 73 -56 103 -78 30 -21 59 -42 64 -46 5 -4 -20 -50 -56 -101
-80 -116 -81 -118 -70 -118 4 0 39 45 76 100 37 55 72 100 77 100 5 0 44 -17
87 -39 42 -21 98 -46 125 -56 26 -10 47 -20 47 -22 0 -3 -36 -92 -81 -199 -45
-108 -79 -198 -75 -201 3 -3 10 5 15 18 15 40 154 374 157 378 1 1 15 -1 30
-6 23 -8 30 -18 41 -66 54 -240 284 -382 518 -322 160 42 276 168 308 335 8
42 16 60 29 64 20 5 15 16 103 -199 84 -203 86 -207 92 -202 3 3 -31 94 -76
202 -44 107 -81 200 -81 205 0 6 6 10 13 10 6 0 64 26 128 58 l117 57 73 -107
c40 -60 77 -108 81 -108 11 0 9 4 -67 115 -34 50 -65 95 -68 102 -4 7 8 21 30
34 20 12 70 49 110 81 l74 59 162 -155 c89 -85 164 -152 167 -149 3 3 -68 76
-158 162 l-163 156 48 48 49 47 267 0 c154 0 267 4 267 9 0 5 -58 109 -129
232 l-128 223 15 48 c12 35 20 47 31 43 140 -44 465 -134 469 -131 7 7 7 7
-247 81 -123 36 -226 66 -227 68 -2 2 6 45 16 97 11 52 20 106 20 120 1 49 4
50 165 35 82 -8 151 -13 153 -10 9 9 -24 14 -163 25 -77 7 -141 13 -142 14 -1
1 -3 65 -4 141 l-1 140 173 22 c96 12 198 24 227 28 28 4 52 10 52 14 0 4 -82
-3 -182 -15 -101 -13 -204 -25 -229 -29 -46 -5 -47 -5 -53 27 -6 29 -2 36 48
79 107 96 152 203 144 343 -8 122 -36 186 -122 272 -54 54 -85 76 -131 94 -74
28 -186 37 -264 20 -56 -12 -59 -11 -82 11 -13 13 -51 47 -83 76 -55 48 -58
54 -45 72 8 11 69 93 137 181 67 88 118 160 113 160 -5 0 -66 -75 -136 -167
-71 -93 -131 -172 -135 -176 -4 -5 -30 7 -56 26 -27 19 -71 47 -99 62 -27 15
-60 34 -73 42 l-22 13 31 62 c57 112 98 208 90 208 -4 0 -34 -57 -66 -126 -33
-69 -63 -127 -67 -130 -4 -3 -48 11 -98 30 -49 20 -94 36 -99 36 -5 0 -21 4
-35 9 l-24 10 59 233 c32 128 59 238 58 243 -1 25 -23 -47 -75 -250 -31 -121
-57 -221 -58 -222 0 -1 -27 4 -60 11 l-58 11 -109 188 -109 188 0 210 c0 133
-4 209 -10 209 -6 0 -10 -75 -10 -205z m0 -580 l0 -335 -31 0 c-26 0 -29 3
-24 21 5 15 4 19 -4 15 -6 -4 -11 -14 -11 -22 0 -8 -10 -14 -25 -14 -29 0 -30
7 -10 34 8 11 15 25 15 30 -1 15 -40 -36 -40 -51 0 -13 -50 -19 -50 -7 0 3 8
18 19 32 10 15 28 47 40 72 l22 45 -24 -29 c-14 -16 -35 -50 -48 -77 -19 -42
-27 -49 -51 -49 l-29 0 27 45 c14 25 24 48 21 52 -3 3 -18 -18 -34 -46 l-28
-51 -63 0 -63 0 33 58 c136 238 353 612 355 612 2 0 3 -151 3 -335z m133 143
c58 -101 143 -249 190 -330 85 -146 86 -148 59 -148 -25 0 -40 23 -192 286
-122 212 -166 298 -170 330 -3 24 -3 44 1 44 4 0 54 -82 112 -182z m40 -192
c81 -139 149 -261 153 -270 5 -12 0 -16 -17 -16 -21 0 -43 33 -154 225 -97
168 -131 237 -135 270 -3 25 -3 45 1 45 3 0 72 -114 152 -254z m-29 -69 c64
-112 116 -207 116 -210 0 -4 -10 -7 -22 -7 -19 0 -40 29 -118 165 -68 119 -97
178 -100 210 -3 25 -3 45 1 45 3 0 59 -91 123 -203z m-380 81 c-18 -33 -40
-48 -66 -48 -25 0 -29 4 -26 22 2 16 12 25 33 29 51 11 67 10 59 -3z m554 -3
c27 -6 33 -11 30 -28 -2 -18 -9 -21 -33 -19 -16 2 -38 13 -47 25 -22 28 -23
40 0 33 9 -2 32 -8 50 -11z m-205 -145 c85 -148 86 -150 59 -150 -24 0 -34 12
-87 106 -39 68 -62 121 -65 150 -3 24 -3 44 0 44 4 0 45 -67 93 -150z m-458
93 c-6 -2 -55 -19 -110 -39 -55 -19 -107 -38 -116 -40 -19 -6 -35 24 -20 39 5
5 60 27 123 48 l113 39 10 -22 c6 -14 6 -23 0 -25z m849 -4 c107 -38 121 -48
104 -72 -12 -16 -18 -15 -87 13 -41 17 -94 36 -118 41 -30 8 -43 17 -43 29 0
38 11 37 144 -11z m-784 -7 c0 -5 -6 -16 -13 -26 -13 -18 -14 -18 -21 -1 -4
11 -1 22 6 27 17 10 28 10 28 0z m619 -9 c0 -5 -4 -16 -8 -27 -7 -17 -9 -16
-24 8 -17 26 -17 26 8 26 14 0 25 -3 24 -7z m-667 -21 c5 -16 -11 -25 -101
-56 -131 -46 -135 -46 -139 -20 -3 19 8 26 80 51 46 17 90 33 98 36 31 12 58
7 62 -11z m811 -22 c104 -38 108 -41 100 -68 -4 -17 -10 -21 -22 -16 -17 7
-188 72 -208 79 -6 2 -9 13 -6 25 7 25 13 24 136 -20z m-1088 -11 c4 -11 5
-21 3 -23 -1 -1 -28 -15 -58 -31 -30 -15 -81 -46 -112 -67 -31 -21 -59 -38
-62 -38 -3 0 -10 9 -16 19 -9 17 -4 24 34 50 47 33 187 111 198 111 4 0 10 -9
13 -21z m682 -79 l52 -90 -27 0 c-21 0 -32 9 -51 43 -23 39 -45 137 -31 137 3
0 29 -40 57 -90z m628 56 c74 -40 165 -105 165 -116 0 -4 -6 -13 -13 -19 -11
-8 -33 2 -95 43 -45 29 -95 59 -112 66 -28 12 -39 37 -23 53 10 10 11 10 78
-27z m-1040 -16 c-9 -16 -29 -53 -46 -82 -26 -45 -28 -53 -15 -60 14 -8 12
-16 -14 -61 -16 -29 -32 -51 -35 -50 -6 2 -105 199 -105 208 0 9 183 73 213
74 16 1 16 -1 2 -29z m751 6 c105 -37 144 -55 143 -69 0 -6 -22 -54 -48 -106
-48 -94 -48 -94 -63 -70 -8 13 -22 36 -31 51 -21 34 -21 46 -2 50 11 2 4 21
-30 78 -41 68 -51 90 -42 90 2 0 35 -11 73 -24z m-997 -23 c8 -15 -5 -26 -82
-71 -51 -29 -100 -61 -110 -70 -18 -16 -20 -15 -33 3 -14 18 -13 22 13 42 30
24 184 113 195 113 4 0 11 -8 17 -17z m1292 -43 c46 -28 93 -60 104 -70 17
-18 18 -22 5 -35 -14 -13 -22 -10 -75 26 -33 22 -81 51 -107 65 -27 13 -48 26
-48 28 0 15 14 36 24 36 7 0 51 -23 97 -50z m-1171 -218 c0 -10 -90 -173 -105
-190 -1 -1 -51 62 -110 140 l-109 141 32 26 c17 15 66 45 109 68 l78 43 52
-108 c29 -59 52 -113 53 -120z m1168 145 c45 -29 82 -56 82 -61 0 -18 -203
-277 -211 -269 -4 4 -29 46 -56 93 l-50 86 53 112 c61 130 41 126 182 39z
m-665 31 c17 -27 17 -28 -3 -28 -16 0 -20 7 -20 32 0 17 1 29 3 27 2 -2 11
-16 20 -31z m-901 -8 c0 -5 1 -14 2 -18 1 -5 -32 -37 -71 -71 -56 -48 -77 -61
-93 -56 -12 4 -20 11 -18 16 2 5 36 38 77 74 70 62 99 77 103 55z m1828 -66
c73 -69 80 -81 55 -90 -16 -6 -34 6 -115 79 -44 39 -50 50 -40 62 7 8 16 15
21 15 5 0 40 -30 79 -66z m-1284 20 c-8 -20 -795 -1386 -806 -1397 -4 -4 -13
-1 -20 8 -17 21 -26 5 234 454 123 213 296 513 386 669 144 249 166 282 188
282 18 0 23 -4 18 -16z m74 7 c0 -13 -839 -1465 -848 -1469 -4 -1 -12 6 -19
16 -9 16 -2 35 46 118 32 54 160 277 285 494 392 680 459 794 478 823 18 25
58 38 58 18z m181 7 c7 -23 35 -625 29 -631 -4 -5 -27 -7 -51 -5 l-43 3 -78
255 c-85 276 -83 261 -33 339 l25 41 75 0 c41 0 75 -1 76 -2z m113 -7 c6 -9
-22 -596 -29 -618 -3 -7 -11 -13 -20 -13 -10 0 -15 10 -15 33 0 17 -7 145 -15
282 -8 138 -15 267 -15 288 l0 37 44 0 c25 0 47 -4 50 -9z m209 -51 l36 -60
-78 -258 -78 -257 -53 -3 -53 -3 7 78 c3 43 11 182 17 308 6 127 12 236 14
243 3 8 28 12 79 12 l74 0 35 -60z m107 -60 c233 -402 676 -1170 720 -1247 37
-66 50 -98 45 -113 -4 -12 -11 -20 -17 -18 -5 2 -89 141 -185 308 -97 168
-290 501 -428 740 -139 239 -250 439 -247 443 2 5 13 7 25 5 15 -2 40 -36 87
-118z m24 83 c13 -21 196 -336 406 -700 340 -590 380 -664 370 -684 -10 -18
-14 -19 -24 -8 -19 21 -816 1406 -816 1419 0 25 41 8 64 -27z m-1214 12 c7 -9
11 -17 9 -18 -2 -1 -33 -28 -69 -59 -60 -51 -67 -55 -85 -42 -17 12 -17 16 -5
28 35 33 124 106 131 106 3 0 12 -7 19 -15z m1742 -52 c35 -32 65 -59 68 -61
3 -2 -4 -10 -14 -18 -18 -12 -25 -8 -85 43 -36 31 -68 58 -70 60 -6 4 20 33
30 33 4 0 36 -26 71 -57z m-1608 -120 c58 -76 106 -143 106 -149 0 -8 -348
-620 -364 -641 -1 -1 -84 7 -184 19 -159 19 -182 24 -182 40 0 16 8 17 80 11
384 -29 603 418 344 705 l-44 50 61 51 c33 28 65 51 69 51 5 0 56 -62 114
-137z m1558 81 c29 -26 57 -50 62 -55 5 -5 -7 -26 -29 -50 -157 -174 -133
-454 52 -605 78 -64 149 -88 260 -88 82 -1 93 -3 93 -18 0 -10 -6 -18 -12 -18
-7 0 -85 -9 -172 -20 -88 -11 -163 -17 -167 -13 -4 5 -88 149 -187 321 l-181
314 106 139 c58 76 110 139 114 139 5 0 32 -21 61 -46z m-1922 -3 c111 -42
195 -130 240 -249 18 -47 21 -73 18 -148 -3 -78 -8 -100 -37 -158 -60 -121
-167 -202 -303 -227 -169 -31 -350 66 -431 231 -30 60 -32 72 -32 170 0 97 2
110 32 172 92 194 314 284 513 209z m2358 19 c70 -17 131 -50 191 -106 247
-228 120 -636 -216 -695 -213 -38 -425 117 -464 339 -29 163 60 341 210 421
92 49 185 62 279 41z m-1520 -293 c40 -133 72 -245 72 -249 0 -5 -8 -8 -17 -8
-14 1 -39 51 -105 207 l-87 206 25 44 c14 23 29 43 32 43 4 0 40 -109 80 -243z
m550 204 c12 -21 22 -45 22 -52 0 -25 -164 -401 -178 -406 -7 -3 -16 -3 -19 1
-7 7 138 496 147 496 4 0 16 -17 28 -39z m-610 -264 c45 -105 82 -195 82 -199
0 -10 -93 -39 -101 -31 -5 5 -46 59 -93 122 l-86 114 36 61 c19 34 42 76 51
94 9 17 19 32 23 32 3 0 42 -87 88 -193z m709 92 l51 -85 -89 -119 c-49 -65
-90 -120 -92 -122 -6 -5 -97 28 -97 35 -1 19 164 391 170 385 4 -4 30 -47 57
-94z m-833 -209 c82 -107 95 -129 77 -131 -6 -1 -14 -2 -18 -3 -5 -1 -46 38
-92 86 -82 86 -83 88 -71 118 7 16 16 30 20 30 3 0 41 -45 84 -100z m910 75
c16 -24 16 -27 -4 -53 -12 -15 -51 -58 -88 -95 -52 -54 -69 -67 -83 -60 -16 7
-8 22 67 121 46 61 86 112 88 112 2 0 11 -11 20 -25z m-881 -225 c-4 -4 -28
-19 -53 -33 l-45 -26 -65 42 c-36 23 -67 47 -68 52 -2 6 14 41 35 78 l38 69
83 -88 c45 -48 79 -90 75 -94z m951 106 c20 -35 36 -67 36 -70 0 -4 -31 -27
-70 -51 l-69 -45 -51 31 c-35 21 -48 35 -43 44 14 24 148 161 155 158 3 -2 22
-32 42 -67z m-369 -61 c193 -53 391 -190 537 -373 l58 -73 -27 -37 c-114 -154
-257 -278 -408 -352 -142 -70 -203 -84 -365 -84 -112 -1 -149 3 -214 22 -173
50 -357 173 -486 325 -90 106 -97 120 -79 154 23 44 185 208 258 262 115 86
253 147 389 171 68 13 267 3 337 -15z m-752 -76 c58 -36 59 -37 37 -52 -21
-15 -27 -14 -81 14 -33 16 -59 34 -59 39 0 19 24 49 35 42 5 -3 36 -23 68 -43z
m1186 24 c14 -30 14 -29 -61 -69 -41 -20 -51 -22 -68 -12 -11 7 -20 15 -20 18
0 6 121 88 131 89 3 1 11 -11 18 -26z m-1244 -70 c30 -15 55 -30 54 -33 0 -3
-26 -27 -57 -53 -53 -45 -60 -48 -97 -42 -21 3 -41 7 -42 9 -4 3 78 146 83
146 2 0 28 -12 59 -27z m1305 -36 c19 -34 36 -67 38 -73 3 -12 -29 -24 -63
-23 -18 0 -132 95 -124 103 6 6 104 55 109 55 3 1 21 -27 40 -62z m-2111 -37
c28 -15 16 -60 -16 -60 -21 0 -24 4 -19 23 3 12 6 28 6 35 0 15 6 15 29 2z
m2834 -27 c3 -16 5 -29 4 -29 -1 -1 -12 -4 -23 -8 -29 -9 -42 33 -17 52 24 18
30 15 36 -15z m-2765 -1 c17 -11 4 -42 -17 -42 -24 0 -30 8 -24 31 6 20 20 24
41 11z m2702 -22 c0 -13 -7 -20 -19 -20 -25 0 -38 20 -20 31 23 15 39 10 39
-11z m-2047 -27 c19 -11 -37 -53 -70 -53 -37 0 -40 9 -17 46 14 21 22 24 48
18 17 -3 35 -9 39 -11z m1460 -12 c15 -26 15 -30 1 -35 -28 -11 -47 -6 -71 16
-36 33 -34 35 42 47 6 0 18 -12 28 -28z m-2181 -124 c-2 -73 -7 -136 -12 -141
-5 -5 -16 -6 -24 -3 -13 5 -16 26 -16 115 0 144 5 170 33 165 21 -4 22 -8 19
-136z m53 125 c7 -4 9 -54 7 -134 -4 -115 -6 -128 -22 -128 -24 0 -30 19 -30
98 0 140 13 187 45 164z m2727 -79 c3 -43 3 -102 1 -131 -5 -46 -8 -53 -25
-50 -18 3 -20 13 -23 130 -2 111 0 127 14 131 26 6 28 1 33 -80z m62 41 c9
-66 7 -207 -2 -222 -5 -7 -16 -10 -25 -6 -14 5 -17 22 -17 103 0 53 -3 113 -6
134 -6 34 -5 37 18 37 22 0 26 -5 32 -46z m-2575 15 c91 -12 168 -23 170 -24
4 -5 -76 -149 -97 -173 -14 -17 -37 -22 -137 -30 -66 -5 -121 -9 -122 -8 -4 3
-7 117 -5 184 1 47 6 72 14 72 6 0 86 -9 177 -21z m2449 -107 l3 -122 -58 1
c-32 1 -86 4 -121 8 l-62 6 -55 95 c-49 87 -52 95 -34 98 65 11 306 39 314 38
6 -2 11 -54 13 -124z m-2058 67 c0 -6 -13 -28 -30 -49 -35 -44 -36 -52 -14
-86 9 -13 15 -26 13 -28 -9 -8 -131 -16 -128 -9 2 5 26 48 53 96 44 77 53 87
78 87 15 0 28 -5 28 -11z m1573 -26 c13 -21 38 -64 56 -96 l33 -58 -53 6 c-82
10 -84 11 -65 40 22 33 21 37 -19 89 -19 26 -35 48 -35 51 0 3 13 5 30 5 24 0
35 -8 53 -37z m-1563 -178 c13 -14 22 -27 19 -29 -6 -5 -253 -65 -257 -62 -1
2 9 24 24 49 26 47 25 47 114 60 59 10 77 6 100 -18z m1598 19 c61 -7 62 -8
87 -52 14 -25 23 -47 21 -49 -5 -5 -237 46 -245 53 -8 8 43 54 59 54 10 0 45
-3 78 -6z m-1948 -10 c0 -8 -58 -113 -73 -132 -8 -10 -12 -9 -22 5 -11 14 -18
7 -56 -58 l-43 -74 -17 70 c-9 39 -19 93 -23 122 l-6 51 77 7 c43 3 87 7 98 9
38 6 65 6 65 0z m2291 -5 c57 -5 105 -11 106 -13 5 -5 -27 -178 -36 -193 -6
-11 -15 -3 -36 33 -26 44 -29 46 -41 29 -8 -10 -15 -17 -17 -14 -3 3 -74 125
-94 162 -5 9 -5 9 118 -4z m-2530 -110 c9 -52 20 -106 24 -121 5 -21 3 -27
-15 -33 -12 -4 -23 -5 -25 -3 -6 5 -45 204 -45 226 0 20 16 33 35 28 5 -1 17
-45 26 -97z m2691 51 c-1 -25 -10 -80 -19 -123 -14 -69 -18 -78 -37 -75 -25 4
-25 6 0 146 17 92 21 102 39 100 17 -3 20 -9 17 -48z m-2760 -21 c4 -31 14
-87 23 -124 8 -37 14 -69 13 -71 -2 -1 -12 -4 -23 -6 -17 -3 -22 7 -37 67 -10
39 -21 99 -24 133 -7 63 -7 64 17 60 21 -3 25 -10 31 -59z m2824 9 c-12 -96
-39 -208 -50 -208 -33 1 -35 15 -16 110 11 52 20 107 20 123 0 22 4 27 26 27
26 0 26 -1 20 -52z m-2072 -37 l58 -58 -218 -112 c-239 -123 -223 -120 -263
-45 l-23 41 50 84 50 84 133 32 c74 17 139 32 144 32 6 1 37 -25 69 -58z
m1498 28 c73 -17 134 -31 135 -32 1 -1 26 -45 57 -97 l55 -94 -26 -47 -26 -48
-230 115 -230 116 59 59 c32 32 62 59 65 59 4 0 67 -14 141 -31z m-2026 -104
c-2 -5 -78 -138 -169 -295 -134 -231 -172 -289 -201 -307 -20 -13 -36 -21 -36
-18 0 6 199 355 328 574 51 87 56 93 69 75 7 -10 12 -23 9 -29z m2579 -313
c103 -178 185 -325 183 -326 -1 -2 -129 70 -283 160 -154 90 -284 165 -289
166 -5 2 -3 15 4 28 18 35 19 36 36 14 16 -19 16 -14 -1 29 -3 6 0 19 6 27 8
11 12 12 16 3 2 -7 13 -23 24 -35 17 -21 18 -21 12 -3 -3 11 -13 29 -20 41
-13 21 -9 54 8 54 5 0 20 -21 33 -47 13 -27 32 -57 40 -68 l16 -20 -7 20 c-3
11 -21 44 -40 73 -37 60 -38 61 -20 87 13 17 16 15 37 -23 13 -23 26 -40 28
-37 2 2 -7 24 -21 48 l-26 43 30 53 c17 29 34 49 39 45 5 -5 92 -154 195 -332z
m-1951 303 c11 -8 18 -17 15 -19 -4 -4 -252 -166 -371 -242 l-67 -43 -27 46
c-15 26 -23 48 -18 50 5 2 104 53 219 113 116 60 215 109 220 109 6 0 19 -6
29 -14z m1356 -100 l229 -115 -26 -45 c-19 -34 -30 -45 -42 -40 -12 5 -410
259 -440 282 -5 4 31 32 42 33 4 0 110 -52 237 -115z m-1954 71 c4 -18 -25
-77 -128 -254 -115 -199 -138 -234 -172 -253 l-39 -22 34 60 c152 267 285 493
291 493 4 0 10 -11 14 -24z m711 -49 l34 -20 -33 -36 c-19 -20 -96 -102 -172
-183 l-138 -148 -67 0 -67 0 -37 64 c-20 35 -38 69 -39 75 -2 6 96 76 217 156
215 141 221 144 244 128 13 -8 40 -25 58 -36z m1195 -108 c114 -74 208 -138
208 -142 0 -5 -17 -37 -37 -72 l-38 -65 -76 0 -76 0 -167 179 c-92 99 -167
183 -167 186 0 4 24 22 53 40 46 29 56 32 73 21 11 -7 113 -73 227 -147z
m-1962 -93 c-79 -136 -109 -179 -136 -195 -19 -11 -34 -17 -34 -14 0 6 63 117
188 331 51 89 55 92 68 73 14 -19 7 -34 -86 -195z m-110 174 c-10 -18 -14 -20
-21 -9 -13 20 -11 27 9 31 24 6 25 3 12 -22z m2630 9 c0 -5 -4 -9 -10 -9 -5 0
-10 7 -10 16 0 8 5 12 10 9 6 -3 10 -10 10 -16z m-2665 -28 c6 -26 -7 -71 -21
-71 -4 0 -15 25 -28 67 -6 20 0 26 36 32 3 0 9 -12 13 -28z m2718 22 c6 -12
-12 -73 -22 -73 -13 0 -31 48 -25 65 6 15 40 21 47 8z m-1734 -12 c7 -5 12
-13 10 -18 -2 -6 -58 -83 -124 -171 l-120 -161 -57 -1 c-32 0 -58 3 -58 6 0 7
323 354 330 354 3 0 11 -4 19 -9z m862 -113 c63 -68 138 -149 168 -180 l54
-58 -61 0 -61 0 -125 165 c-69 90 -126 169 -126 174 0 8 15 18 31 20 3 1 57
-54 120 -121z m-1571 66 c0 -8 -28 -62 -61 -120 -41 -70 -74 -113 -97 -129
-20 -14 -37 -23 -39 -21 -2 1 36 70 85 153 66 114 90 149 100 141 6 -6 12 -17
12 -24z m809 5 c23 -7 41 -16 41 -20 0 -4 -27 -69 -59 -146 l-59 -138 -116 -3
c-64 -1 -116 0 -116 3 0 3 54 78 121 166 75 100 126 159 134 155 7 -2 31 -10
54 -17z m719 -144 l122 -165 -119 0 -119 0 -62 145 c-35 80 -61 147 -59 149 6
5 93 34 104 35 6 0 65 -74 133 -164z m-631 117 c9 -5 1 -44 -30 -145 l-42
-137 -37 0 c-21 0 -38 3 -38 6 0 5 108 263 117 277 5 9 15 9 30 -1z m435 -132
c32 -73 58 -138 58 -142 0 -5 -17 -8 -37 -6 l-38 3 -41 135 c-39 129 -41 157
-9 147 5 -2 35 -64 67 -137z m-1323 35 c-17 -31 -44 -62 -60 -70 -49 -26 -49
-27 23 98 38 66 41 68 54 48 13 -18 12 -26 -17 -76z m1023 -10 c-2 -49 -5
-109 -8 -132 l-6 -43 -90 0 c-88 0 -89 0 -82 23 4 12 22 71 40 130 19 60 36
111 38 115 3 4 28 5 57 2 l53 -5 -2 -90z m222 -17 c20 -68 39 -131 42 -140 5
-16 -4 -18 -84 -18 l-89 0 -6 68 c-4 37 -7 97 -7 134 l0 67 43 4 c23 2 47 4
53 5 5 1 27 -53 48 -120z m-160 60 c3 -29 6 -90 6 -135 l0 -83 -32 0 -31 0 6
126 c7 131 10 144 31 144 8 0 16 -19 20 -52z m-1024 -28 c0 -6 -44 -30 -55
-30 -2 0 4 13 13 29 12 22 20 27 29 19 7 -6 13 -14 13 -18z m23 -44 c15 -23
15 -24 -6 -31 -22 -7 -22 -8 3 -12 52 -10 68 -42 20 -41 -17 1 -33 -2 -37 -5
-3 -4 12 -7 34 -7 38 0 43 -3 67 -44 32 -56 32 -60 -1 -54 -16 3 -39 2 -53 -3
-18 -6 -9 -8 32 -6 l56 2 31 -52 c17 -28 31 -54 31 -57 0 -3 -174 -6 -387 -6
-212 0 -383 3 -379 8 8 8 558 329 567 331 4 1 14 -10 22 -23z m2013 -11 c18
-13 16 -14 -20 -15 -33 0 -37 2 -26 15 15 19 21 19 46 0z m89 -52 c34 -16 51
-41 19 -29 -9 3 -56 6 -105 6 -87 0 -89 1 -79 20 9 17 21 20 70 20 35 0 74 -7
95 -17z m104 -60 c17 -10 31 -21 31 -25 0 -9 -334 -11 -343 -2 -3 3 -1 15 6
25 11 17 25 19 144 19 107 0 137 -3 162 -17z m-349 -41 c0 -2 -5 -12 -10 -23
-10 -19 -31 -19 -858 -19 -859 0 -872 1 -872 35 0 7 269 10 870 10 478 0 870
-1 870 -3z m460 -25 l35 -22 -244 -3 c-134 -1 -246 0 -248 2 -3 2 0 14 7 25
10 20 18 21 213 21 192 0 204 -1 237 -23z m-506 -62 l-16 -25 -808 0 -808 0
-16 25 -16 25 840 0 840 0 -16 -25z m605 8 c17 -10 31 -21 31 -25 0 -9 -614
-11 -623 -2 -3 3 -1 15 6 25 11 18 28 19 284 19 240 0 275 -2 302 -17z m-2041
-149 c-40 -59 -78 -109 -85 -111 -13 -5 -65 28 -152 97 -51 40 -52 42 -35 61
11 13 30 19 56 19 35 0 39 2 33 20 -6 19 -2 20 125 20 l131 0 -73 -106z m293
59 c-73 -181 -121 -288 -130 -291 -11 -4 -188 71 -216 92 -19 14 -29 -4 99
179 l47 67 109 0 110 0 -19 -47z m626 -56 c23 -56 45 -111 49 -122 4 -11 -16
6 -44 37 -95 103 -197 143 -341 136 -96 -5 -166 -31 -236 -87 -52 -43 -112
-123 -126 -172 -7 -21 -18 -39 -26 -39 -11 0 -10 7 3 38 8 20 41 99 72 174
l57 138 275 0 275 0 42 -103z m272 -11 c86 -125 88 -112 -36 -172 -122 -59
-118 -61 -184 96 -32 74 -62 148 -68 163 l-10 28 111 -3 112 -3 75 -109z m221
105 c0 -6 -4 -13 -10 -16 -5 -3 -10 -13 -10 -21 0 -10 13 -14 46 -14 41 0 45
-2 33 -16 -20 -24 -171 -134 -184 -134 -7 0 -44 47 -84 105 l-72 105 140 0
c82 0 141 -4 141 -9z m739 -13 l36 -23 -384 -3 c-211 -1 -386 0 -388 2 -3 2 0
14 7 25 11 21 16 21 352 21 336 0 341 0 377 -22z m-2550 -59 c39 -38 41 -43
27 -58 -15 -14 -21 -11 -66 34 -27 27 -50 53 -50 57 0 23 51 4 89 -33z m66 21
c16 -18 17 -22 4 -35 -13 -13 -19 -11 -49 20 l-34 35 30 0 c18 0 38 -8 49 -20z
m50 10 c-3 -5 -13 -10 -21 -10 -8 0 -14 5 -14 10 0 6 9 10 21 10 11 0 17 -4
14 -10z m1060 -48 c262 -123 323 -454 120 -657 -235 -234 -630 -106 -687 223
-34 200 95 401 294 457 83 23 193 14 273 -23z m795 35 c0 -2 -8 -11 -18 -21
-18 -15 -20 -15 -37 4 -18 20 -18 20 18 20 21 0 37 -2 37 -3z m52 -39 c-39
-40 -43 -42 -59 -25 -16 16 -16 18 7 42 17 18 34 25 59 25 l36 0 -43 -42z
m-112 7 c6 -8 9 -18 6 -23 -6 -11 -137 -110 -178 -136 -25 -17 -27 -16 -37 2
-9 18 -1 27 72 80 46 33 89 68 96 76 17 20 25 20 41 1z m-1757 -38 c28 -23 73
-56 99 -72 49 -31 57 -45 35 -63 -13 -11 -90 36 -178 109 -38 32 -42 38 -30
53 7 9 15 16 17 16 3 0 28 -19 57 -43z m1775 -59 c-24 -21 -74 -59 -111 -85
-56 -39 -70 -45 -77 -33 -17 26 -11 34 48 72 31 21 77 55 102 77 42 37 46 38
63 23 18 -16 17 -18 -25 -54z m-1712 -65 c46 -30 52 -38 43 -54 -5 -11 -12
-19 -15 -19 -9 0 -94 60 -162 113 -59 47 -62 50 -46 68 15 17 18 16 71 -28 31
-24 80 -61 109 -80z m1474 -2 c9 -18 3 -24 -52 -54 -35 -19 -89 -45 -121 -58
-50 -20 -60 -21 -67 -9 -15 24 -9 29 72 64 42 18 91 42 110 54 42 26 45 26 58
3z m-1279 -34 c52 -24 106 -49 121 -55 20 -8 25 -16 21 -31 -3 -12 -9 -21 -12
-21 -25 0 -225 93 -235 109 -5 8 2 41 9 41 1 0 45 -20 96 -43z m1319 -32 c0
-8 -46 -36 -102 -63 -135 -65 -144 -68 -158 -43 -10 19 -6 23 32 38 24 9 79
35 123 58 78 41 105 43 105 10z m-1247 -70 c32 -12 47 -23 47 -36 0 -10 -4
-20 -9 -23 -9 -6 -106 31 -186 71 -71 36 -76 42 -64 64 9 18 14 17 87 -20 42
-21 98 -46 125 -56z m111 2 c-3 -9 -12 -17 -20 -17 -17 0 -17 5 -3 32 13 24
33 10 23 -15z m846 2 c0 -5 -4 -9 -10 -9 -5 0 -10 7 -10 16 0 8 5 12 10 9 6
-3 10 -10 10 -16z m-866 -35 c9 -3 16 -17 16 -31 0 -21 -3 -23 -22 -17 -30 9
-31 9 -23 33 7 23 7 23 29 15z m880 -10 c7 -18 0 -34 -15 -34 -5 0 -9 11 -9
25 0 28 15 34 24 9z"/>
<path d="M3050 4434 c0 -8 5 -12 10 -9 6 3 10 10 10 16 0 5 -4 9 -10 9 -5 0
-10 -7 -10 -16z"/>
<path d="M3007 4363 c-4 -3 -7 -11 -7 -17 0 -6 5 -5 12 2 6 6 9 14 7 17 -3 3
-9 2 -12 -2z"/>
<path d="M2940 4237 c-8 -12 -40 -67 -72 -122 -60 -104 -80 -156 -27 -72 43
70 120 209 116 213 -1 2 -9 -7 -17 -19z"/>
<path d="M3050 4205 c-7 -9 -10 -18 -7 -21 3 -3 10 4 17 15 13 25 8 27 -10 6z"/>
<path d="M2950 4151 c-6 -12 -7 -21 -1 -21 10 0 24 30 17 37 -2 3 -9 -5 -16
-16z"/>
<path d="M3050 4099 c0 -5 5 -7 10 -4 6 3 10 8 10 11 0 2 -4 4 -10 4 -5 0 -10
-5 -10 -11z"/>
<path d="M2580 3900 c6 -11 13 -20 16 -20 2 0 0 9 -6 20 -6 11 -13 20 -16 20
-2 0 0 -9 6 -20z"/>
<path d="M2445 3840 c10 -11 20 -20 23 -20 3 0 -3 9 -13 20 -10 11 -20 20 -23
20 -3 0 3 -9 13 -20z"/>
<path d="M2470 3806 c0 -2 8 -10 18 -17 15 -13 16 -12 3 4 -13 16 -21 21 -21
13z"/>
<path d="M3660 3880 c-6 -11 -8 -20 -6 -20 3 0 10 9 16 20 6 11 8 20 6 20 -3
0 -10 -9 -16 -20z"/>
<path d="M3814 3848 l-19 -23 23 19 c21 18 27 26 19 26 -2 0 -12 -10 -23 -22z"/>
<path d="M3734 3748 l-19 -23 23 19 c21 18 27 26 19 26 -2 0 -12 -10 -23 -22z"/>
<path d="M2525 3529 c-4 -6 -5 -12 -2 -15 2 -3 7 2 10 11 7 17 1 20 -8 4z"/>
<path d="M2420 3340 c-6 -11 -8 -20 -6 -20 3 0 10 9 16 20 6 11 8 20 6 20 -3
0 -10 -9 -16 -20z"/>
<path d="M2130 2850 c-6 -11 -8 -20 -6 -20 3 0 10 9 16 20 6 11 8 20 6 20 -3
0 -10 -9 -16 -20z"/>
<path d="M2016 2643 c-6 -14 -5 -15 5 -6 7 7 10 15 7 18 -3 3 -9 -2 -12 -12z"/>
<path d="M2290 2990 c-6 -11 -8 -20 -6 -20 3 0 10 9 16 20 6 11 8 20 6 20 -3
0 -10 -9 -16 -20z"/>
<path d="M3032 3840 c0 -14 2 -19 5 -12 2 6 2 18 0 25 -3 6 -5 1 -5 -13z"/>
<path d="M3680 3470 c6 -11 13 -20 16 -20 2 0 0 9 -6 20 -6 11 -13 20 -16 20
-2 0 0 -9 6 -20z"/>
<path d="M3730 3390 c6 -11 13 -20 16 -20 2 0 0 9 -6 20 -6 11 -13 20 -16 20
-2 0 0 -9 6 -20z"/>
<path d="M4030 2850 c6 -11 13 -20 16 -20 2 0 0 9 -6 20 -6 11 -13 20 -16 20
-2 0 0 -9 6 -20z"/>
<path d="M3620 3690 c6 -11 13 -20 16 -20 2 0 0 9 -6 20 -6 11 -13 20 -16 20
-2 0 0 -9 6 -20z"/>
<path d="M3905 3203 c15 -24 30 -43 32 -43 7 0 -31 61 -46 73 -8 7 -2 -7 14
-30z"/>
<path d="M4240 2630 c6 -11 13 -20 16 -20 2 0 0 9 -6 20 -6 11 -13 20 -16 20
-2 0 0 -9 6 -20z"/>
<path d="M2345 3790 c10 -11 20 -20 23 -20 3 0 -3 9 -13 20 -10 11 -20 20 -23
20 -3 0 3 -9 13 -20z"/>
<path d="M2385 3740 c10 -11 20 -20 23 -20 3 0 -3 9 -13 20 -10 11 -20 20 -23
20 -3 0 3 -9 13 -20z"/>
<path d="M2450 3646 c0 -2 8 -10 18 -17 15 -13 16 -12 3 4 -13 16 -21 21 -21
13z"/>
<path d="M4059 3096 c13 -16 51 -41 51 -33 0 2 -15 14 -32 27 -21 15 -28 17
-19 6z"/>
<path d="M1644 3718 l-19 -23 23 19 c21 18 27 26 19 26 -2 0 -12 -10 -23 -22z"/>
<path d="M1858 3706 c-212 -59 -240 -355 -42 -452 112 -55 253 -16 317 87 116
188 -62 425 -275 365z m171 -32 c94 -47 146 -154 122 -251 -44 -173 -245 -241
-372 -126 -72 65 -98 144 -76 229 38 145 192 215 326 148z"/>
<path d="M1913 3663 c9 -2 25 -2 35 0 9 3 1 5 -18 5 -19 0 -27 -2 -17 -5z"/>
<path d="M1981 3656 c2 -2 15 -9 29 -15 24 -11 24 -11 6 3 -16 13 -49 24 -35
12z"/>
<path d="M1814 3618 l-19 -23 23 19 c21 18 27 26 19 26 -2 0 -12 -10 -23 -22z"/>
<path d="M1884 3561 c-50 -22 -71 -102 -39 -148 23 -32 79 -48 116 -33 90 38
74 173 -21 185 -19 3 -45 1 -56 -4z m106 -39 c44 -55 7 -132 -65 -132 -88 0
-115 120 -34 154 40 17 75 9 99 -22z"/>
<path d="M1918 3513 c7 -3 16 -2 19 1 4 3 -2 6 -13 5 -11 0 -14 -3 -6 -6z"/>
<path d="M1950 3506 c0 -2 8 -10 18 -17 15 -13 16 -12 3 4 -13 16 -21 21 -21
13z"/>
<path d="M1750 3403 c0 -6 8 -17 18 -24 16 -13 16 -13 2 6 -8 11 -16 22 -17
24 -2 2 -3 0 -3 -6z"/>
<path d="M1571 3574 c0 -11 3 -14 6 -6 3 7 2 16 -1 19 -3 4 -6 -2 -5 -13z"/>
<path d="M1562 3510 c0 -19 2 -27 5 -17 2 9 2 25 0 35 -3 9 -5 1 -5 -18z"/>
<path d="M2271 3524 c0 -11 3 -14 6 -6 3 7 2 16 -1 19 -3 4 -6 -2 -5 -13z"/>
<path d="M2281 3454 c0 -11 3 -14 6 -6 3 7 2 16 -1 19 -3 4 -6 -2 -5 -13z"/>
<path d="M1650 3236 c0 -2 8 -10 18 -17 15 -13 16 -12 3 4 -13 16 -21 21 -21
13z"/>
<path d="M2150 3198 c-25 -22 -36 -36 -25 -30 19 10 84 72 74 72 -2 -1 -24
-19 -49 -42z"/>
<path d="M4333 3843 c15 -2 39 -2 55 0 15 2 2 4 -28 4 -30 0 -43 -2 -27 -4z"/>
<path d="M4343 3793 c9 -2 25 -2 35 0 9 3 1 5 -18 5 -19 0 -27 -2 -17 -5z"/>
<path d="M4545 3770 c10 -11 20 -20 23 -20 3 0 -3 9 -13 20 -10 11 -20 20 -23
20 -3 0 3 -9 13 -20z"/>
<path d="M4287 3709 c-77 -18 -143 -73 -173 -145 -22 -52 -18 -141 10 -200 41
-88 118 -134 225 -134 62 0 105 17 155 60 44 39 62 72 77 139 24 114 -54 240
-170 275 -60 18 -69 18 -124 5z m141 -25 c84 -35 141 -120 142 -212 0 -93 -48
-168 -135 -208 -122 -57 -255 -2 -310 129 -58 140 57 307 213 307 29 0 69 -7
90 -16z"/>
<path d="M4194 3608 l-19 -23 23 19 c21 18 27 26 19 26 -2 0 -12 -10 -23 -22z"/>
<path d="M4278 3541 c-27 -24 -33 -36 -33 -70 0 -91 105 -131 166 -63 44 49
34 119 -22 148 -42 21 -75 17 -111 -15z m96 5 c35 -15 60 -62 49 -94 -22 -63
-94 -82 -138 -37 -50 49 -23 123 53 144 1 1 18 -5 36 -13z"/>
<path d="M4523 3460 c0 -25 2 -35 4 -22 2 12 2 32 0 45 -2 12 -4 2 -4 -23z"/>
<path d="M4661 3474 c0 -11 3 -14 6 -6 3 7 2 16 -1 19 -3 4 -6 -2 -5 -13z"/>
<path d="M4019 3272 c5 -10 18 -25 27 -33 11 -9 9 -2 -6 19 -26 35 -36 42 -21
14z"/>
<path d="M4574 3208 l-29 -33 33 29 c17 17 32 31 32 33 0 8 -8 1 -36 -29z"/>
<path d="M4495 3154 c-22 -13 -35 -24 -30 -24 12 0 75 38 75 45 0 6 2 7 -45
-21z"/>
<path d="M2866 3357 c3 -10 9 -15 12 -12 3 3 0 11 -7 18 -10 9 -11 8 -5 -6z"/>
<path d="M3469 3413 c-13 -16 -12 -17 4 -4 16 13 21 21 13 21 -2 0 -10 -8 -17
-17z"/>
<path d="M2650 3295 c19 -19 36 -35 39 -35 3 0 -10 16 -29 35 -19 19 -36 35
-39 35 -3 0 10 -16 29 -35z"/>
<path d="M2610 3266 c0 -2 8 -10 18 -17 15 -13 16 -12 3 4 -13 16 -21 21 -21
13z"/>
<path d="M3604 3298 l-19 -23 23 19 c12 11 22 21 22 23 0 8 -8 2 -26 -19z"/>
<path d="M2938 3273 c7 -3 16 -2 19 1 4 3 -2 6 -13 5 -11 0 -14 -3 -6 -6z"/>
<path d="M2995 3255 c-124 -27 -205 -75 -330 -195 -44 -43 -109 -96 -145 -120
-82 -54 -100 -76 -100 -123 0 -52 31 -81 117 -107 45 -13 94 -39 138 -71 93
-68 213 -125 315 -150 70 -18 102 -21 185 -16 55 3 127 13 160 22 94 25 212
88 305 162 46 38 114 86 150 108 52 32 66 46 68 68 4 37 -10 53 -77 87 -31 15
-94 63 -141 105 -228 207 -427 278 -645 230z m225 -9 c139 -25 261 -95 421
-242 47 -43 106 -87 134 -100 97 -42 98 -70 5 -127 -36 -22 -101 -69 -145
-104 -91 -73 -229 -145 -325 -170 -39 -10 -105 -16 -165 -16 -160 -1 -281 41
-444 153 -53 36 -115 69 -155 82 -151 48 -153 123 -6 213 25 16 88 69 140 119
124 119 232 177 364 196 75 11 94 11 176 -4z"/>
<path d="M2815 3150 c-3 -6 1 -7 9 -4 18 7 21 14 7 14 -6 0 -13 -4 -16 -10z"/>
<path d="M2975 3134 c-109 -23 -259 -101 -325 -168 -30 -32 -72 -68 -93 -82
-78 -51 -70 -109 20 -134 27 -8 65 -30 88 -50 141 -127 250 -174 430 -186 181
-13 368 52 510 175 39 34 91 75 118 92 66 43 64 68 -7 108 -29 17 -88 58 -132
91 -191 149 -392 199 -609 154z m312 -15 c78 -19 182 -72 266 -134 42 -32 75
-60 73 -62 -2 -2 -44 14 -93 36 -337 148 -642 144 -844 -11 -89 -69 -103 -70
-34 -2 100 98 227 161 370 184 71 11 193 6 262 -11z m-248 -92 c-38 -33 -50
-52 -60 -94 -33 -147 147 -262 261 -166 51 43 61 70 77 211 5 41 7 43 31 37
75 -19 90 -31 97 -82 16 -122 -53 -250 -169 -311 -44 -23 -63 -27 -136 -27
-73 0 -92 4 -136 27 -106 56 -168 156 -168 273 0 98 16 127 79 141 28 7 73 12
100 13 l50 1 -26 -23z m251 -7 c36 -36 22 -89 -30 -110 -28 -11 -34 -11 -58 7
-64 48 -47 123 28 123 27 0 47 -7 60 -20z m-461 -42 c-38 -136 37 -302 168
-368 41 -21 62 -25 143 -25 81 0 102 4 143 25 110 56 181 177 175 297 -2 35 1
63 6 63 5 0 63 -24 130 -54 67 -30 131 -57 144 -61 30 -9 28 -32 -6 -49 -15
-8 -68 -49 -117 -91 -96 -82 -210 -145 -310 -170 -86 -22 -254 -20 -349 5 -95
24 -158 58 -244 130 -79 66 -112 112 -112 154 1 26 11 39 66 80 61 46 147 96
165 96 4 0 3 -15 -2 -32z m306 -128 c37 -41 -24 -97 -63 -58 -18 18 -15 55 6
67 25 15 37 13 57 -9z m-547 -7 c-1 -10 2 -33 6 -50 9 -38 8 -38 -39 -19 -41
18 -46 47 -13 70 29 21 47 20 46 -1z"/>
<path d="M2918 2993 c7 -3 16 -2 19 1 4 3 -2 6 -13 5 -11 0 -14 -3 -6 -6z"/>
<path d="M3310 2766 c0 -3 9 -10 20 -16 11 -6 20 -8 20 -6 0 3 -9 10 -20 16
-11 6 -20 8 -20 6z"/>
<path d="M2984 2698 l-19 -23 23 19 c12 11 22 21 22 23 0 8 -8 2 -26 -19z"/>
<path d="M3220 2690 c6 -11 13 -20 16 -20 2 0 0 9 -6 20 -6 11 -13 20 -16 20
-2 0 0 -9 6 -20z"/>
<path d="M3111 2654 c0 -11 3 -14 6 -6 3 7 2 16 -1 19 -3 4 -6 -2 -5 -13z"/>
<path d="M2684 2894 c-18 -14 -18 -15 4 -4 12 6 22 13 22 15 0 8 -5 6 -26 -11z"/>
<path d="M3538 2823 c7 -3 16 -2 19 1 4 3 -2 6 -13 5 -11 0 -14 -3 -6 -6z"/>
<path d="M3560 3035 c13 -14 26 -25 28 -25 3 0 -5 11 -18 25 -13 14 -26 25
-28 25 -3 0 5 -11 18 -25z"/>
<path d="M2767 3205 c-20 -14 -37 -28 -37 -31 0 -2 18 8 40 22 35 23 47 34 37
34 -1 0 -19 -11 -40 -25z"/>
<path d="M3510 3167 c0 -3 12 -12 26 -22 15 -9 23 -12 20 -6 -7 11 -46 35 -46
28z"/>
<path d="M3660 3056 c0 -2 8 -10 18 -17 15 -13 16 -12 3 4 -13 16 -21 21 -21
13z"/>
<path d="M2389 2903 c-13 -16 -12 -17 4 -4 9 7 17 15 17 17 0 8 -8 3 -21 -13z"/>
<path d="M2550 2666 c0 -2 7 -7 16 -10 8 -3 12 -2 9 4 -6 10 -25 14 -25 6z"/>
<path d="M4198 2943 c7 -3 16 -2 19 1 4 3 -2 6 -13 5 -11 0 -14 -3 -6 -6z"/>
<path d="M4328 2813 c12 -2 30 -2 40 0 9 3 -1 5 -23 4 -22 0 -30 -2 -17 -4z"/>
<path d="M1908 2663 c7 -3 16 -2 19 1 4 3 -2 6 -13 5 -11 0 -14 -3 -6 -6z"/>
<path d="M4313 2713 c9 -2 25 -2 35 0 9 3 1 5 -18 5 -19 0 -27 -2 -17 -5z"/>
<path d="M2358 2544 c-27 -13 -48 -27 -48 -29 0 -5 99 42 109 51 13 11 -20 0
-61 -22z"/>
<path d="M4080 2446 c0 -3 14 -12 30 -21 17 -9 30 -13 30 -11 0 3 -13 12 -30
21 -16 9 -30 13 -30 11z"/>
<path d="M4310 2519 c0 -15 147 -269 156 -269 3 0 -14 35 -37 78 -47 86 -118
200 -119 191z"/>
<path d="M4350 2335 c0 -15 18 -40 24 -34 3 3 -1 14 -9 25 -8 10 -14 15 -15 9z"/>
<path d="M4350 2218 c0 -9 5 -20 10 -23 13 -8 13 5 0 25 -8 13 -10 13 -10 -2z"/>
<path d="M4510 2166 c0 -9 5 -16 10 -16 6 0 10 4 10 9 0 6 -4 13 -10 16 -5 3
-10 -1 -10 -9z"/>
<path d="M4560 2080 c0 -5 5 -10 11 -10 5 0 7 5 4 10 -3 6 -8 10 -11 10 -2 0
-4 -4 -4 -10z"/>
<path d="M2520 2305 c-24 -25 -42 -45 -39 -45 3 0 25 20 49 45 24 25 42 45 39
45 -3 0 -25 -20 -49 -45z"/>
<path d="M2298 2274 c-38 -20 -36 -28 2 -9 17 9 30 18 30 20 0 7 -1 6 -32 -11z"/>
<path d="M3680 2347 c0 -2 15 -16 33 -33 l32 -29 -29 33 c-28 30 -36 37 -36
29z"/>
<path d="M3980 2256 c0 -2 8 -10 18 -17 15 -13 16 -12 3 4 -13 16 -21 21 -21
13z"/>
<path d="M2784 2338 l-19 -23 23 19 c12 11 22 21 22 23 0 8 -8 2 -26 -19z"/>
<path d="M2790 2220 c-6 -11 -8 -20 -6 -20 3 0 10 9 16 20 6 11 8 20 6 20 -3
0 -10 -9 -16 -20z"/>
<path d="M2991 2274 c0 -11 3 -14 6 -6 3 7 2 16 -1 19 -3 4 -6 -2 -5 -13z"/>
<path d="M3251 2274 c0 -11 3 -14 6 -6 3 7 2 16 -1 19 -3 4 -6 -2 -5 -13z"/>
<path d="M2055 2150 c-3 -5 1 -10 10 -10 9 0 13 5 10 10 -3 6 -8 10 -10 10 -2
0 -7 -4 -10 -10z"/>
<path d="M1968 2093 c6 -2 18 -2 25 0 6 3 1 5 -13 5 -14 0 -19 -2 -12 -5z"/>
<path d="M2098 2093 c23 -2 61 -2 85 0 23 2 4 4 -43 4 -47 0 -66 -2 -42 -4z"/>
<path d="M2063 2033 c9 -2 23 -2 30 0 6 3 -1 5 -18 5 -16 0 -22 -2 -12 -5z"/>
<path d="M1760 1980 c0 -5 5 -10 10 -10 6 0 10 5 10 10 0 6 -4 10 -10 10 -5 0
-10 -4 -10 -10z"/>
<path d="M1850 1980 c0 -5 6 -10 14 -10 8 0 18 5 21 10 3 6 -3 10 -14 10 -12
0 -21 -4 -21 -10z"/>
<path d="M2048 1983 c39 -2 105 -2 145 0 39 1 7 3 -73 3 -80 0 -112 -2 -72 -3z"/>
<path d="M2377 2043 c18 -2 50 -2 70 0 21 2 7 4 -32 4 -38 0 -55 -2 -38 -4z"/>
<path d="M3298 2043 c7 -3 16 -2 19 1 4 3 -2 6 -13 5 -11 0 -14 -3 -6 -6z"/>
<path d="M3458 1993 c17 -2 47 -2 65 0 17 2 3 4 -33 4 -36 0 -50 -2 -32 -4z"/>
<path d="M2678 1983 c34 -2 90 -2 125 0 34 2 6 3 -63 3 -69 0 -97 -1 -62 -3z"/>
<path d="M2399 1823 c-13 -16 -12 -17 4 -4 9 7 17 15 17 17 0 8 -8 3 -21 -13z"/>
<path d="M2560 1790 c-6 -11 -8 -20 -6 -20 3 0 10 9 16 20 6 11 8 20 6 20 -3
0 -10 -9 -16 -20z"/>
<path d="M3491 1835 c0 -5 8 -26 19 -45 11 -19 19 -30 19 -25 0 6 -8 26 -19
45 -11 19 -19 31 -19 25z"/>
<path d="M3828 1913 c7 -3 16 -2 19 1 4 3 -2 6 -13 5 -11 0 -14 -3 -6 -6z"/>
<path d="M3730 1896 c0 -2 8 -10 18 -17 15 -13 16 -12 3 4 -13 16 -21 21 -21
13z"/>
<path d="M3118 1833 c6 -2 18 -2 25 0 6 3 1 5 -13 5 -14 0 -19 -2 -12 -5z"/>
<path d="M2887 1721 c-19 -22 -40 -50 -46 -63 -11 -22 -11 -22 6 2 10 14 33
42 52 62 18 21 31 38 28 38 -2 0 -21 -18 -40 -39z"/>
<path d="M3370 1756 c0 -2 8 -10 18 -17 15 -13 16 -12 3 4 -13 16 -21 21 -21
13z"/>
<path d="M3085 1721 c-193 -50 -256 -290 -110 -419 50 -44 101 -62 171 -62
132 1 234 105 234 240 0 99 -47 177 -131 220 -42 22 -121 32 -164 21z m151
-30 c52 -24 108 -90 124 -147 27 -97 -16 -204 -104 -259 -42 -26 -59 -30 -115
-30 -135 1 -231 95 -231 225 0 129 101 230 230 230 32 0 72 -8 96 -19z"/>
<path d="M3027 1608 c-18 -18 -21 -23 -7 -12 14 12 34 26 45 32 11 6 14 12 7
12 -7 0 -27 -15 -45 -32z"/>
<path d="M3091 1566 c-56 -31 -66 -99 -22 -148 22 -24 37 -32 63 -32 99 0 140
107 66 169 -32 27 -70 31 -107 11z m107 -28 c31 -29 30 -81 -3 -113 -61 -62
-162 3 -134 85 21 59 88 72 137 28z"/>
<path d="M3118 1313 c7 -3 16 -2 19 1 4 3 -2 6 -13 5 -11 0 -14 -3 -6 -6z"/>
<path d="M2791 1524 c0 -11 3 -14 6 -6 3 7 2 16 -1 19 -3 4 -6 -2 -5 -13z"/>
<path d="M2940 1196 c0 -2 8 -10 18 -17 15 -13 16 -12 3 4 -13 16 -21 21 -21
13z"/>
<path d="M4172 5068 c-15 -42 -8 -48 12 -9 18 34 19 41 8 41 -4 0 -13 -14 -20
-32z"/>
<path d="M2120 4982 c0 -18 63 -142 72 -142 5 0 -8 33 -28 73 -40 79 -44 86
-44 69z"/>
<path d="M4097 4915 c-20 -41 -33 -75 -29 -75 10 0 78 138 71 144 -3 3 -22
-28 -42 -69z"/>
<path d="M2600 4954 c0 -25 35 -154 42 -154 10 0 11 -8 -11 78 -18 67 -31 99
-31 76z"/>
<path d="M3647 4943 c-3 -10 -11 -38 -17 -63 -6 -25 -13 -53 -16 -62 -3 -10
-1 -18 3 -18 10 0 48 148 40 156 -3 3 -8 -3 -10 -13z"/>
<path d="M2230 4740 c11 -22 43 -88 70 -146 28 -59 53 -105 56 -101 8 7 -127
287 -138 287 -5 0 1 -18 12 -40z"/>
<path d="M3966 4639 c-37 -77 -65 -143 -62 -146 3 -4 28 42 56 101 27 58 59
124 70 146 11 22 17 40 12 40 -5 0 -39 -63 -76 -141z"/>
<path d="M1840 4560 c0 -9 36 -61 97 -139 2 -2 6 -2 9 2 3 3 -19 38 -50 77
-31 40 -56 67 -56 60z"/>
<path d="M4361 4498 c-29 -38 -50 -72 -47 -75 3 -4 7 -4 9 -2 63 81 98 131 95
138 -2 4 -27 -23 -57 -61z"/>
<path d="M2970 4540 c-6 -11 -8 -20 -6 -20 3 0 10 9 16 20 6 11 8 20 6 20 -3
0 -10 -9 -16 -20z"/>
<path d="M2930 4470 c-6 -11 -8 -20 -6 -20 3 0 10 9 16 20 6 11 8 20 6 20 -3
0 -10 -9 -16 -20z"/>
<path d="M3330 4430 c6 -11 13 -20 16 -20 2 0 0 9 -6 20 -6 11 -13 20 -16 20
-2 0 0 -9 6 -20z"/>
<path d="M3390 4416 c0 -2 8 -10 18 -17 15 -13 16 -12 3 4 -13 16 -21 21 -21
13z"/>
<path d="M4170 3965 c13 -14 26 -25 28 -25 3 0 -5 11 -18 25 -13 14 -26 25
-28 25 -3 0 5 -11 18 -25z"/>
<path d="M1828 3943 c7 -3 16 -2 19 1 4 3 -2 6 -13 5 -11 0 -14 -3 -6 -6z"/>
<path d="M4468 3933 c7 -3 16 -2 19 1 4 3 -2 6 -13 5 -11 0 -14 -3 -6 -6z"/>
<path d="M4600 3886 c0 -2 8 -10 18 -17 15 -13 16 -12 3 4 -13 16 -21 21 -21
13z"/>
<path d="M1480 3254 c0 -6 7 -19 16 -30 14 -18 14 -18 3 6 -14 31 -19 36 -19
24z"/>
<path d="M4730 3240 c-6 -11 -8 -20 -6 -20 3 0 10 9 16 20 6 11 8 20 6 20 -3
0 -10 -9 -16 -20z"/>
<path d="M4664 3148 l-29 -33 33 29 c17 17 32 31 32 33 0 8 -8 1 -36 -29z"/>
<path d="M1021 3111 c36 -12 169 -23 144 -12 -11 5 -54 11 -95 15 -46 3 -65 2
-49 -3z"/>
<path d="M5142 3110 c-29 -4 -56 -11 -60 -15 -8 -8 121 4 157 16 24 7 23 7 -9
7 -19 0 -59 -4 -88 -8z"/>
<path d="M4622 2860 c0 -14 2 -19 5 -12 2 6 2 18 0 25 -3 6 -5 1 -5 -13z"/>
<path d="M1133 2696 c-67 -6 -125 -14 -129 -18 -9 -10 -8 -10 164 6 78 7 145
16 149 20 8 8 -29 6 -184 -8z"/>
<path d="M4942 2705 c4 -4 72 -14 150 -21 174 -16 170 -16 164 -5 -3 4 -52 11
-108 15 -57 4 -128 10 -158 13 -30 3 -52 2 -48 -2z"/>
<path d="M838 2673 c-32 -2 -58 -8 -58 -13 0 -11 152 -1 165 11 5 5 -3 8 -20
7 -17 -1 -56 -3 -87 -5z"/>
<path d="M5315 2673 c13 -14 165 -24 165 -12 0 5 -17 9 -39 9 -21 0 -60 3 -87
6 -33 5 -46 3 -39 -3z"/>
<path d="M660 2650 c0 -11 14 -11 50 0 22 7 21 8 -12 9 -21 1 -38 -3 -38 -9z"/>
<path d="M5550 2650 c36 -11 50 -11 50 0 0 6 -17 10 -37 9 -34 -1 -35 -2 -13
-9z"/>
<path d="M1123 2287 c-40 -12 -73 -26 -73 -30 0 -5 6 -7 13 -4 7 3 41 13 75
22 34 10 62 22 62 26 0 5 -1 8 -2 8 -2 -1 -36 -11 -75 -22z"/>
<path d="M5060 2300 c0 -4 28 -15 62 -25 34 -9 68 -19 75 -22 7 -3 13 -1 13 4
0 4 -34 18 -75 29 -41 12 -75 18 -75 14z"/>
<path d="M4610 2230 c6 -11 13 -20 16 -20 2 0 0 9 -6 20 -6 11 -13 20 -16 20
-2 0 0 -9 6 -20z"/>
<path d="M1688 1853 c7 -3 16 -2 19 1 4 3 -2 6 -13 5 -11 0 -14 -3 -6 -6z"/>
<path d="M1970 1847 c0 -2 15 -16 33 -33 l32 -29 -29 33 c-28 30 -36 37 -36
29z"/>
<path d="M4658 1823 c7 -3 16 -2 19 1 4 3 -2 6 -13 5 -11 0 -14 -3 -6 -6z"/>
<path d="M2185 1672 c17 -19 39 -38 50 -44 11 -6 16 -7 10 -2 -5 5 -28 25 -50
44 l-40 35 30 -33z"/>
<path d="M4039 1653 c-13 -16 -12 -17 4 -4 9 7 17 15 17 17 0 8 -8 3 -21 -13z"/>
<path d="M2447 1499 c7 -7 15 -10 18 -7 3 3 -2 9 -12 12 -14 6 -15 5 -6 -5z"/>
<path d="M3730 1485 c-14 -8 -20 -14 -14 -15 5 0 19 7 30 15 24 18 16 19 -16
0z"/>
<path d="M1725 1390 c-33 -33 -55 -60 -49 -60 13 0 119 108 113 114 -3 3 -32
-21 -64 -54z"/>
<path d="M4470 1444 c0 -13 108 -119 114 -113 3 3 -21 32 -54 64 -33 33 -60
55 -60 49z"/>
<path d="M2124 1253 c-37 -54 -78 -113 -92 -131 -13 -18 -21 -36 -18 -39 7 -8
-4 -22 100 130 49 71 86 130 83 133 -3 3 -35 -39 -73 -93z"/>
<path d="M4060 1346 c0 -6 154 -238 177 -265 1 -2 5 -2 8 1 3 3 -31 59 -76
124 -83 121 -109 155 -109 140z"/>
<path d="M2730 1230 c6 -11 13 -20 16 -20 2 0 0 9 -6 20 -6 11 -13 20 -16 20
-2 0 0 -9 6 -20z"/>
<path d="M2750 1196 c0 -2 8 -10 18 -17 15 -13 16 -12 3 4 -13 16 -21 21 -21
13z"/>
<path d="M3464 1128 l-29 -33 33 29 c17 17 32 31 32 33 0 8 -8 1 -36 -29z"/>
<path d="M1932 973 c-57 -85 -47 -93 11 -9 25 36 43 67 39 70 -4 2 -26 -25
-50 -61z"/>
<path d="M4278 1034 c-4 -3 14 -35 39 -70 59 -85 68 -76 10 10 -24 36 -46 63
-49 60z"/>
<path d="M2452 1013 c-20 -37 -62 -146 -58 -151 6 -5 19 20 50 97 24 60 29 95
8 54z"/>
<path d="M3790 1029 c0 -7 50 -129 62 -152 5 -10 12 -17 14 -14 5 5 -54 149
-66 161 -6 6 -10 8 -10 5z"/>
<path d="M1838 835 c-22 -30 -24 -58 -2 -30 24 31 36 55 27 55 -4 0 -16 -11
-25 -25z"/>
<path d="M4399 843 c20 -38 40 -59 40 -43 0 15 -32 60 -43 60 -4 0 -2 -8 3
-17z"/>
</g>
</svg>
